<?xml version='1.0' encoding='utf-8'?>
<svg xmlns="http://www.w3.org/2000/svg" width="1200" height="400" viewBox="0 0 1200 400"><defs><mask id="matrixMask"><rect width="1200" height="400" fill="white" /><rect x="663" y="77" width="3" height="3" fill="black" /><rect x="808" y="333" width="3" height="3" fill="black" /><rect x="98" y="37" width="3" height="3" fill="black" /><rect x="1097" y="48" width="3" height="3" fill="black" /><rect x="748" y="298" width="3" height="3" fill="black" /><rect x="118" y="259" width="3" height="3" fill="black" /><rect x="439" y="19" width="3" height="3" fill="black" /><rect x="176" y="222" width="3" height="3" fill="black" /><rect x="856" y="35" width="3" height="3" fill="black" /><rect x="492" y="46" width="3" height="3" fill="black" /><rect x="1128" y="217" width="3" height="3" fill="black" /><rect x="121" y="289" width="3" height="3" fill="black" /><rect x="253" y="114" width="3" height="3" fill="black" /><rect x="1193" y="31" width="3" height="3" fill="black" /><rect x="1181" y="299" width="3" height="3" fill="black" /><rect x="812" y="25" width="3" height="3" fill="black" /><rect x="452" y="23" width="3" height="3" fill="black" /><rect x="1140" y="68" width="3" height="3" fill="black" /><rect x="593" y="214" width="3" height="3" fill="black" /><rect x="295" y="276" width="3" height="3" fill="black" /><rect x="241" y="292" width="3" height="3" fill="black" /><rect x="631" y="286" width="3" height="3" fill="black" /><rect x="370" y="52" width="3" height="3" fill="black" /><rect x="1191" y="292" width="3" height="3" fill="black" /><rect x="384" y="190" width="3" height="3" fill="black" /><rect x="199" y="280" width="3" height="3" fill="black" /><rect x="128" y="288" width="3" height="3" fill="black" /><rect x="122" y="316" width="3" height="3" fill="black" /><rect x="421" y="254" width="3" height="3" fill="black" /><rect x="1088" y="218" width="3" height="3" fill="black" /><rect x="643" y="238" width="3" height="3" fill="black" /><rect x="928" y="185" width="3" height="3" fill="black" /><rect x="613" y="127" width="3" height="3" fill="black" /><rect x="368" y="357" width="3" height="3" fill="black" /><rect x="499" y="41" width="3" height="3" fill="black" /><rect x="1176" y="153" width="3" height="3" fill="black" /><rect x="1075" y="253" width="3" height="3" fill="black" /><rect x="703" y="373" width="3" height="3" fill="black" /><rect x="919" y="147" width="3" height="3" fill="black" /><rect x="149" y="60" width="3" height="3" fill="black" /><rect x="1048" y="214" width="3" height="3" fill="black" /><rect x="337" y="387" width="3" height="3" fill="black" /><rect x="700" y="77" width="3" height="3" fill="black" /><rect x="1001" y="215" width="3" height="3" fill="black" /><rect x="80" y="342" width="3" height="3" fill="black" /><rect x="158" y="391" width="3" height="3" fill="black" /><rect x="1142" y="293" width="3" height="3" fill="black" /><rect x="642" y="174" width="3" height="3" fill="black" /><rect x="717" y="304" width="3" height="3" fill="black" /><rect x="1017" y="296" width="3" height="3" fill="black" /><rect x="934" y="35" width="3" height="3" fill="black" /><rect x="191" y="138" width="3" height="3" fill="black" /><rect x="970" y="356" width="3" height="3" fill="black" /><rect x="133" y="31" width="3" height="3" fill="black" /><rect x="634" y="331" width="3" height="3" fill="black" /><rect x="1183" y="348" width="3" height="3" fill="black" /><rect x="912" y="145" width="3" height="3" fill="black" /><rect x="790" y="342" width="3" height="3" fill="black" /><rect x="710" y="11" width="3" height="3" fill="black" /><rect x="945" y="181" width="3" height="3" fill="black" /><rect x="344" y="312" width="3" height="3" fill="black" /><rect x="239" y="252" width="3" height="3" fill="black" /><rect x="120" y="111" width="3" height="3" fill="black" /><rect x="588" y="66" width="3" height="3" fill="black" /><rect x="507" y="203" width="3" height="3" fill="black" /><rect x="800" y="254" width="3" height="3" fill="black" /><rect x="165" y="85" width="3" height="3" fill="black" /><rect x="919" y="205" width="3" height="3" fill="black" /><rect x="1125" y="142" width="3" height="3" fill="black" /><rect x="280" y="220" width="3" height="3" fill="black" /><rect x="1126" y="142" width="3" height="3" fill="black" /><rect x="850" y="183" width="3" height="3" fill="black" /><rect x="779" y="118" width="3" height="3" fill="black" /><rect x="309" y="42" width="3" height="3" fill="black" /><rect x="360" y="77" width="3" height="3" fill="black" /><rect x="475" y="337" width="3" height="3" fill="black" /><rect x="477" y="6" width="3" height="3" fill="black" /><rect x="993" y="301" width="3" height="3" fill="black" /><rect x="373" y="134" width="3" height="3" fill="black" /><rect x="577" y="2" width="3" height="3" fill="black" /><rect x="298" y="214" width="3" height="3" fill="black" /><rect x="1094" y="189" width="3" height="3" fill="black" /><rect x="1159" y="163" width="3" height="3" fill="black" /><rect x="257" y="353" width="3" height="3" fill="black" /><rect x="1055" y="316" width="3" height="3" fill="black" /><rect x="110" y="233" width="3" height="3" fill="black" /><rect x="1145" y="200" width="3" height="3" fill="black" /><rect x="815" y="204" width="3" height="3" fill="black" /><rect x="807" y="53" width="3" height="3" fill="black" /><rect x="986" y="324" width="3" height="3" fill="black" /><rect x="820" y="31" width="3" height="3" fill="black" /><rect x="390" y="34" width="3" height="3" fill="black" /><rect x="427" y="225" width="3" height="3" fill="black" /><rect x="332" y="56" width="3" height="3" fill="black" /><rect x="696" y="307" width="3" height="3" fill="black" /><rect x="107" y="52" width="3" height="3" fill="black" /><rect x="0" y="290" width="3" height="3" fill="black" /><rect x="309" y="274" width="3" height="3" fill="black" /><rect x="207" y="186" width="3" height="3" fill="black" /><rect x="52" y="36" width="3" height="3" fill="black" /><rect x="425" y="314" width="3" height="3" fill="black" /><rect x="770" y="76" width="3" height="3" fill="black" /><rect x="516" y="177" width="3" height="3" fill="black" /><rect x="745" y="242" width="3" height="3" fill="black" /><rect x="251" y="59" width="3" height="3" fill="black" /><rect x="999" y="238" width="3" height="3" fill="black" /><rect x="983" y="247" width="3" height="3" fill="black" /><rect x="638" y="43" width="3" height="3" fill="black" /><rect x="295" y="52" width="3" height="3" fill="black" /><rect x="701" y="379" width="3" height="3" fill="black" /><rect x="542" y="245" width="3" height="3" fill="black" /><rect x="330" y="264" width="3" height="3" fill="black" /><rect x="47" y="105" width="3" height="3" fill="black" /><rect x="1081" y="185" width="3" height="3" fill="black" /><rect x="300" y="353" width="3" height="3" fill="black" /><rect x="1112" y="13" width="3" height="3" fill="black" /><rect x="1081" y="152" width="3" height="3" fill="black" /><rect x="186" y="356" width="3" height="3" fill="black" /><rect x="534" y="265" width="3" height="3" fill="black" /><rect x="751" y="85" width="3" height="3" fill="black" /><rect x="728" y="395" width="3" height="3" fill="black" /><rect x="456" y="272" width="3" height="3" fill="black" /><rect x="1109" y="257" width="3" height="3" fill="black" /><rect x="675" y="325" width="3" height="3" fill="black" /><rect x="456" y="313" width="3" height="3" fill="black" /><rect x="399" y="122" width="3" height="3" fill="black" /><rect x="820" y="378" width="3" height="3" fill="black" /><rect x="464" y="102" width="3" height="3" fill="black" /><rect x="1060" y="252" width="3" height="3" fill="black" /><rect x="728" y="374" width="3" height="3" fill="black" /><rect x="59" y="14" width="3" height="3" fill="black" /><rect x="572" y="241" width="3" height="3" fill="black" /><rect x="530" y="99" width="3" height="3" fill="black" /><rect x="705" y="228" width="3" height="3" fill="black" /><rect x="715" y="186" width="3" height="3" fill="black" /><rect x="164" y="112" width="3" height="3" fill="black" /><rect x="209" y="116" width="3" height="3" fill="black" /><rect x="962" y="100" width="3" height="3" fill="black" /><rect x="691" y="104" width="3" height="3" fill="black" /><rect x="988" y="319" width="3" height="3" fill="black" /><rect x="3" y="245" width="3" height="3" fill="black" /><rect x="704" y="329" width="3" height="3" fill="black" /><rect x="173" y="338" width="3" height="3" fill="black" /><rect x="245" y="198" width="3" height="3" fill="black" /><rect x="408" y="244" width="3" height="3" fill="black" /><rect x="365" y="222" width="3" height="3" fill="black" /><rect x="680" y="44" width="3" height="3" fill="black" /><rect x="810" y="237" width="3" height="3" fill="black" /><rect x="822" y="380" width="3" height="3" fill="black" /><rect x="173" y="371" width="3" height="3" fill="black" /><rect x="325" y="87" width="3" height="3" fill="black" /><rect x="260" y="14" width="3" height="3" fill="black" /><rect x="309" y="302" width="3" height="3" fill="black" /><rect x="953" y="335" width="3" height="3" fill="black" /><rect x="299" y="313" width="3" height="3" fill="black" /><rect x="971" y="336" width="3" height="3" fill="black" /><rect x="717" y="79" width="3" height="3" fill="black" /><rect x="1123" y="280" width="3" height="3" fill="black" /><rect x="268" y="10" width="3" height="3" fill="black" /><rect x="29" y="371" width="3" height="3" fill="black" /><rect x="210" y="269" width="3" height="3" fill="black" /><rect x="285" y="222" width="3" height="3" fill="black" /><rect x="398" y="108" width="3" height="3" fill="black" /><rect x="57" y="128" width="3" height="3" fill="black" /><rect x="435" y="149" width="3" height="3" fill="black" /><rect x="1026" y="123" width="3" height="3" fill="black" /><rect x="667" y="132" width="3" height="3" fill="black" /><rect x="1114" y="214" width="3" height="3" fill="black" /><rect x="268" y="31" width="3" height="3" fill="black" /><rect x="724" y="234" width="3" height="3" fill="black" /><rect x="1194" y="264" width="3" height="3" fill="black" /><rect x="861" y="256" width="3" height="3" fill="black" /><rect x="267" y="272" width="3" height="3" fill="black" /><rect x="310" y="268" width="3" height="3" fill="black" /><rect x="1045" y="9" width="3" height="3" fill="black" /><rect x="901" y="93" width="3" height="3" fill="black" /><rect x="8" y="76" width="3" height="3" fill="black" /><rect x="352" y="72" width="3" height="3" fill="black" /><rect x="969" y="316" width="3" height="3" fill="black" /><rect x="246" y="284" width="3" height="3" fill="black" /><rect x="126" y="166" width="3" height="3" fill="black" /><rect x="1061" y="271" width="3" height="3" fill="black" /><rect x="1137" y="247" width="3" height="3" fill="black" /><rect x="217" y="286" width="3" height="3" fill="black" /><rect x="116" y="127" width="3" height="3" fill="black" /><rect x="391" y="141" width="3" height="3" fill="black" /><rect x="86" y="395" width="3" height="3" fill="black" /><rect x="200" y="259" width="3" height="3" fill="black" /><rect x="926" y="287" width="3" height="3" fill="black" /><rect x="57" y="389" width="3" height="3" fill="black" /><rect x="129" y="226" width="3" height="3" fill="black" /><rect x="666" y="313" width="3" height="3" fill="black" /><rect x="1035" y="310" width="3" height="3" fill="black" /><rect x="1048" y="102" width="3" height="3" fill="black" /><rect x="567" y="231" width="3" height="3" fill="black" /><rect x="1040" y="273" width="3" height="3" fill="black" /><rect x="979" y="259" width="3" height="3" fill="black" /><rect x="507" y="357" width="3" height="3" fill="black" /><rect x="1071" y="132" width="3" height="3" fill="black" /><rect x="1145" y="103" width="3" height="3" fill="black" /><rect x="916" y="70" width="3" height="3" fill="black" /><rect x="853" y="62" width="3" height="3" fill="black" /><rect x="803" y="226" width="3" height="3" fill="black" /><rect x="647" y="37" width="3" height="3" fill="black" /><rect x="492" y="219" width="3" height="3" fill="black" /><rect x="149" y="108" width="3" height="3" fill="black" /><rect x="620" y="62" width="3" height="3" fill="black" /><rect x="316" y="366" width="3" height="3" fill="black" /><rect x="749" y="73" width="3" height="3" fill="black" /><rect x="518" y="70" width="3" height="3" fill="black" /><rect x="957" y="112" width="3" height="3" fill="black" /><rect x="192" y="203" width="3" height="3" fill="black" /><rect x="997" y="83" width="3" height="3" fill="black" /><rect x="458" y="82" width="3" height="3" fill="black" /><rect x="883" y="263" width="3" height="3" fill="black" /><rect x="827" y="173" width="3" height="3" fill="black" /><rect x="862" y="100" width="3" height="3" fill="black" /><rect x="730" y="163" width="3" height="3" fill="black" /><rect x="188" y="369" width="3" height="3" fill="black" /><rect x="749" y="9" width="3" height="3" fill="black" /><rect x="692" y="283" width="3" height="3" fill="black" /><rect x="939" y="225" width="3" height="3" fill="black" /><rect x="37" y="196" width="3" height="3" fill="black" /><rect x="678" y="264" width="3" height="3" fill="black" /><rect x="605" y="262" width="3" height="3" fill="black" /><rect x="131" y="57" width="3" height="3" fill="black" /><rect x="468" y="53" width="3" height="3" fill="black" /><rect x="172" y="135" width="3" height="3" fill="black" /><rect x="556" y="20" width="3" height="3" fill="black" /><rect x="371" y="138" width="3" height="3" fill="black" /><rect x="265" y="216" width="3" height="3" fill="black" /><rect x="529" y="207" width="3" height="3" fill="black" /><rect x="305" y="274" width="3" height="3" fill="black" /><rect x="1054" y="292" width="3" height="3" fill="black" /><rect x="1012" y="358" width="3" height="3" fill="black" /><rect x="669" y="45" width="3" height="3" fill="black" /><rect x="571" y="29" width="3" height="3" fill="black" /><rect x="375" y="217" width="3" height="3" fill="black" /><rect x="148" y="137" width="3" height="3" fill="black" /><rect x="34" y="324" width="3" height="3" fill="black" /><rect x="181" y="133" width="3" height="3" fill="black" /><rect x="171" y="311" width="3" height="3" fill="black" /><rect x="455" y="34" width="3" height="3" fill="black" /><rect x="541" y="62" width="3" height="3" fill="black" /><rect x="929" y="5" width="3" height="3" fill="black" /><rect x="694" y="283" width="3" height="3" fill="black" /><rect x="855" y="137" width="3" height="3" fill="black" /><rect x="264" y="22" width="3" height="3" fill="black" /><rect x="1079" y="363" width="3" height="3" fill="black" /><rect x="488" y="56" width="3" height="3" fill="black" /><rect x="330" y="134" width="3" height="3" fill="black" /><rect x="103" y="92" width="3" height="3" fill="black" /><rect x="413" y="159" width="3" height="3" fill="black" /><rect x="624" y="271" width="3" height="3" fill="black" /><rect x="421" y="148" width="3" height="3" fill="black" /><rect x="912" y="256" width="3" height="3" fill="black" /><rect x="364" y="138" width="3" height="3" fill="black" /><rect x="710" y="9" width="3" height="3" fill="black" /><rect x="512" y="18" width="3" height="3" fill="black" /><rect x="31" y="9" width="3" height="3" fill="black" /><rect x="1035" y="282" width="3" height="3" fill="black" /><rect x="388" y="263" width="3" height="3" fill="black" /><rect x="972" y="125" width="3" height="3" fill="black" /><rect x="915" y="54" width="3" height="3" fill="black" /><rect x="885" y="336" width="3" height="3" fill="black" /><rect x="1013" y="279" width="3" height="3" fill="black" /><rect x="805" y="259" width="3" height="3" fill="black" /><rect x="630" y="352" width="3" height="3" fill="black" /><rect x="440" y="117" width="3" height="3" fill="black" /><rect x="701" y="101" width="3" height="3" fill="black" /><rect x="286" y="207" width="3" height="3" fill="black" /><rect x="711" y="27" width="3" height="3" fill="black" /><rect x="265" y="7" width="3" height="3" fill="black" /><rect x="144" y="320" width="3" height="3" fill="black" /><rect x="523" y="220" width="3" height="3" fill="black" /><rect x="334" y="28" width="3" height="3" fill="black" /><rect x="173" y="340" width="3" height="3" fill="black" /><rect x="780" y="259" width="3" height="3" fill="black" /><rect x="577" y="306" width="3" height="3" fill="black" /><rect x="496" y="354" width="3" height="3" fill="black" /><rect x="600" y="23" width="3" height="3" fill="black" /><rect x="940" y="94" width="3" height="3" fill="black" /><rect x="322" y="137" width="3" height="3" fill="black" /><rect x="913" y="1" width="3" height="3" fill="black" /><rect x="539" y="186" width="3" height="3" fill="black" /><rect x="673" y="280" width="3" height="3" fill="black" /><rect x="662" y="125" width="3" height="3" fill="black" /><rect x="70" y="158" width="3" height="3" fill="black" /><rect x="446" y="182" width="3" height="3" fill="black" /><rect x="374" y="0" width="3" height="3" fill="black" /><rect x="686" y="195" width="3" height="3" fill="black" /><rect x="171" y="243" width="3" height="3" fill="black" /><rect x="571" y="257" width="3" height="3" fill="black" /><rect x="411" y="127" width="3" height="3" fill="black" /><rect x="1033" y="2" width="3" height="3" fill="black" /><rect x="186" y="135" width="3" height="3" fill="black" /><rect x="183" y="73" width="3" height="3" fill="black" /><rect x="818" y="300" width="3" height="3" fill="black" /><rect x="85" y="201" width="3" height="3" fill="black" /><rect x="46" y="153" width="3" height="3" fill="black" /><rect x="623" y="322" width="3" height="3" fill="black" /><rect x="476" y="43" width="3" height="3" fill="black" /><rect x="1083" y="384" width="3" height="3" fill="black" /><rect x="317" y="336" width="3" height="3" fill="black" /><rect x="797" y="391" width="3" height="3" fill="black" /><rect x="667" y="368" width="3" height="3" fill="black" /><rect x="1012" y="76" width="3" height="3" fill="black" /><rect x="581" y="370" width="3" height="3" fill="black" /><rect x="296" y="22" width="3" height="3" fill="black" /><rect x="1050" y="321" width="3" height="3" fill="black" /><rect x="879" y="375" width="3" height="3" fill="black" /><rect x="1035" y="71" width="3" height="3" fill="black" /><rect x="1072" y="385" width="3" height="3" fill="black" /><rect x="1032" y="291" width="3" height="3" fill="black" /><rect x="32" y="351" width="3" height="3" fill="black" /><rect x="1196" y="364" width="3" height="3" fill="black" /><rect x="470" y="43" width="3" height="3" fill="black" /><rect x="63" y="21" width="3" height="3" fill="black" /><rect x="272" y="326" width="3" height="3" fill="black" /><rect x="738" y="53" width="3" height="3" fill="black" /><rect x="771" y="231" width="3" height="3" fill="black" /><rect x="1143" y="25" width="3" height="3" fill="black" /><rect x="38" y="320" width="3" height="3" fill="black" /><rect x="1088" y="348" width="3" height="3" fill="black" /><rect x="500" y="250" width="3" height="3" fill="black" /><rect x="540" y="1" width="3" height="3" fill="black" /><rect x="935" y="35" width="3" height="3" fill="black" /><rect x="1030" y="274" width="3" height="3" fill="black" /><rect x="188" y="337" width="3" height="3" fill="black" /><rect x="1077" y="33" width="3" height="3" fill="black" /><rect x="970" y="129" width="3" height="3" fill="black" /><rect x="152" y="135" width="3" height="3" fill="black" /><rect x="480" y="373" width="3" height="3" fill="black" /><rect x="420" y="118" width="3" height="3" fill="black" /><rect x="942" y="252" width="3" height="3" fill="black" /><rect x="783" y="39" width="3" height="3" fill="black" /><rect x="981" y="350" width="3" height="3" fill="black" /><rect x="588" y="392" width="3" height="3" fill="black" /><rect x="95" y="315" width="3" height="3" fill="black" /><rect x="406" y="39" width="3" height="3" fill="black" /><rect x="301" y="169" width="3" height="3" fill="black" /><rect x="520" y="333" width="3" height="3" fill="black" /><rect x="623" y="318" width="3" height="3" fill="black" /><rect x="1162" y="68" width="3" height="3" fill="black" /><rect x="25" y="246" width="3" height="3" fill="black" /><rect x="124" y="248" width="3" height="3" fill="black" /><rect x="550" y="344" width="3" height="3" fill="black" /><rect x="203" y="354" width="3" height="3" fill="black" /><rect x="445" y="345" width="3" height="3" fill="black" /><rect x="1002" y="148" width="3" height="3" fill="black" /><rect x="1057" y="146" width="3" height="3" fill="black" /><rect x="951" y="238" width="3" height="3" fill="black" /><rect x="955" y="392" width="3" height="3" fill="black" /><rect x="242" y="281" width="3" height="3" fill="black" /><rect x="408" y="159" width="3" height="3" fill="black" /><rect x="175" y="242" width="3" height="3" fill="black" /><rect x="35" y="148" width="3" height="3" fill="black" /><rect x="939" y="39" width="3" height="3" fill="black" /><rect x="1037" y="230" width="3" height="3" fill="black" /><rect x="550" y="198" width="3" height="3" fill="black" /><rect x="429" y="107" width="3" height="3" fill="black" /><rect x="152" y="297" width="3" height="3" fill="black" /><rect x="184" y="72" width="3" height="3" fill="black" /><rect x="1073" y="134" width="3" height="3" fill="black" /><rect x="736" y="67" width="3" height="3" fill="black" /><rect x="1041" y="143" width="3" height="3" fill="black" /><rect x="230" y="360" width="3" height="3" fill="black" /><rect x="747" y="118" width="3" height="3" fill="black" /><rect x="1019" y="248" width="3" height="3" fill="black" /><rect x="807" y="12" width="3" height="3" fill="black" /><rect x="325" y="1" width="3" height="3" fill="black" /><rect x="1006" y="348" width="3" height="3" fill="black" /><rect x="923" y="207" width="3" height="3" fill="black" /><rect x="618" y="372" width="3" height="3" fill="black" /><rect x="288" y="213" width="3" height="3" fill="black" /><rect x="704" y="192" width="3" height="3" fill="black" /><rect x="647" y="61" width="3" height="3" fill="black" /><rect x="678" y="0" width="3" height="3" fill="black" /><rect x="664" y="384" width="3" height="3" fill="black" /><rect x="692" y="203" width="3" height="3" fill="black" /><rect x="245" y="100" width="3" height="3" fill="black" /><rect x="24" y="378" width="3" height="3" fill="black" /><rect x="593" y="129" width="3" height="3" fill="black" /><rect x="762" y="33" width="3" height="3" fill="black" /><rect x="804" y="199" width="3" height="3" fill="black" /><rect x="156" y="184" width="3" height="3" fill="black" /><rect x="876" y="386" width="3" height="3" fill="black" /><rect x="563" y="24" width="3" height="3" fill="black" /><rect x="574" y="52" width="3" height="3" fill="black" /><rect x="105" y="338" width="3" height="3" fill="black" /><rect x="584" y="325" width="3" height="3" fill="black" /><rect x="304" y="127" width="3" height="3" fill="black" /><rect x="544" y="223" width="3" height="3" fill="black" /><rect x="1046" y="161" width="3" height="3" fill="black" /><rect x="388" y="395" width="3" height="3" fill="black" /><rect x="764" y="219" width="3" height="3" fill="black" /><rect x="59" y="389" width="3" height="3" fill="black" /><rect x="819" y="283" width="3" height="3" fill="black" /><rect x="1124" y="104" width="3" height="3" fill="black" /><rect x="165" y="25" width="3" height="3" fill="black" /></mask></defs></svg>